<mxfile host="Electron" modified="2023-11-13T20:46:37.776Z" agent="Mozilla/5.0 (Windows NT 10.0; Win64; x64) AppleWebKit/537.36 (KHTML, like Gecko) draw.io/22.0.3 Chrome/114.0.5735.289 Electron/25.8.4 Safari/537.36" etag="zuZUDEXr4_2yhqCWe6OA" version="22.0.3" type="device">
  <diagram name="PÃ¡gina-1" id="rJE9hM9_0mmCCRsIHWBO">
    <mxGraphModel dx="864" dy="516" grid="1" gridSize="10" guides="1" tooltips="1" connect="1" arrows="1" fold="1" page="1" pageScale="1" pageWidth="827" pageHeight="1169" math="0" shadow="0">
      <root>
        <mxCell id="0" />
        <mxCell id="1" parent="0" />
        <mxCell id="ySV2w_Ocx4xFf1f9Jq5G-1" value="SQL&amp;nbsp;" style="shape=cylinder3;whiteSpace=wrap;html=1;boundedLbl=1;backgroundOutline=1;size=15;fillColor=#d5e8d4;strokeColor=#82b366;" parent="1" vertex="1">
          <mxGeometry x="500" y="380" width="60" height="80" as="geometry" />
        </mxCell>
        <mxCell id="46Nfbtz4ScoCF9UXXQHK-2" value="VISUAL BASIC" style="rounded=1;arcSize=10;whiteSpace=wrap;html=1;align=center;fillColor=#e1d5e7;strokeColor=#9673a6;" parent="1" vertex="1">
          <mxGeometry x="60" y="130" width="160" height="60" as="geometry" />
        </mxCell>
        <mxCell id="46Nfbtz4ScoCF9UXXQHK-10" value="" style="edgeStyle=orthogonalEdgeStyle;rounded=0;orthogonalLoop=1;jettySize=auto;html=1;" parent="1" source="46Nfbtz4ScoCF9UXXQHK-3" target="46Nfbtz4ScoCF9UXXQHK-8" edge="1">
          <mxGeometry relative="1" as="geometry" />
        </mxCell>
        <mxCell id="46Nfbtz4ScoCF9UXXQHK-12" value="" style="edgeStyle=orthogonalEdgeStyle;rounded=0;orthogonalLoop=1;jettySize=auto;html=1;" parent="1" edge="1">
          <mxGeometry relative="1" as="geometry">
            <mxPoint x="490" y="60" as="sourcePoint" />
            <mxPoint x="667" y="200" as="targetPoint" />
            <Array as="points">
              <mxPoint x="490" y="200" />
            </Array>
          </mxGeometry>
        </mxCell>
        <mxCell id="46Nfbtz4ScoCF9UXXQHK-3" value="VISUAL ESTUDIO 2019" style="rounded=1;arcSize=10;whiteSpace=wrap;html=1;align=center;fillColor=#f8cecc;strokeColor=#b85450;" parent="1" vertex="1">
          <mxGeometry x="400" y="30" width="160" height="60" as="geometry" />
        </mxCell>
        <mxCell id="46Nfbtz4ScoCF9UXXQHK-6" value="List" style="swimlane;fontStyle=0;childLayout=stackLayout;horizontal=1;startSize=26;horizontalStack=0;resizeParent=1;resizeParentMax=0;resizeLast=0;collapsible=1;marginBottom=0;align=center;fontSize=14;" parent="1" vertex="1">
          <mxGeometry x="620" y="14" width="160" height="116" as="geometry">
            <mxRectangle x="640" y="30" width="60" height="30" as="alternateBounds" />
          </mxGeometry>
        </mxCell>
        <mxCell id="46Nfbtz4ScoCF9UXXQHK-7" value="SUNAT" style="text;strokeColor=none;fillColor=none;spacingLeft=4;spacingRight=4;overflow=hidden;rotatable=0;points=[[0,0.5],[1,0.5]];portConstraint=eastwest;fontSize=12;whiteSpace=wrap;html=1;" parent="46Nfbtz4ScoCF9UXXQHK-6" vertex="1">
          <mxGeometry y="26" width="160" height="30" as="geometry" />
        </mxCell>
        <mxCell id="46Nfbtz4ScoCF9UXXQHK-8" value="CPE" style="text;strokeColor=none;fillColor=none;spacingLeft=4;spacingRight=4;overflow=hidden;rotatable=0;points=[[0,0.5],[1,0.5]];portConstraint=eastwest;fontSize=12;whiteSpace=wrap;html=1;" parent="46Nfbtz4ScoCF9UXXQHK-6" vertex="1">
          <mxGeometry y="56" width="160" height="30" as="geometry" />
        </mxCell>
        <mxCell id="46Nfbtz4ScoCF9UXXQHK-9" value="SIRE" style="text;strokeColor=none;fillColor=none;spacingLeft=4;spacingRight=4;overflow=hidden;rotatable=0;points=[[0,0.5],[1,0.5]];portConstraint=eastwest;fontSize=12;whiteSpace=wrap;html=1;" parent="46Nfbtz4ScoCF9UXXQHK-6" vertex="1">
          <mxGeometry y="86" width="160" height="30" as="geometry" />
        </mxCell>
        <mxCell id="46Nfbtz4ScoCF9UXXQHK-11" value="SUNAT" style="whiteSpace=wrap;html=1;rounded=1;arcSize=10;" parent="1" vertex="1">
          <mxGeometry x="670" y="170" width="120" height="60" as="geometry" />
        </mxCell>
        <mxCell id="iKKEj0ru3nS35ErIRS3x-1" value="" style="edgeStyle=none;orthogonalLoop=1;jettySize=auto;html=1;rounded=0;entryX=0;entryY=0.5;entryDx=0;entryDy=0;exitX=0.5;exitY=0;exitDx=0;exitDy=0;" edge="1" parent="1" source="46Nfbtz4ScoCF9UXXQHK-2" target="46Nfbtz4ScoCF9UXXQHK-3">
          <mxGeometry width="100" relative="1" as="geometry">
            <mxPoint x="320" y="190" as="sourcePoint" />
            <mxPoint x="420" y="190" as="targetPoint" />
            <Array as="points" />
          </mxGeometry>
        </mxCell>
        <mxCell id="iKKEj0ru3nS35ErIRS3x-2" value="CONECTOR&lt;br&gt;TOOLS" style="sketch=0;pointerEvents=1;shadow=0;dashed=0;html=1;strokeColor=none;fillColor=#505050;labelPosition=center;verticalLabelPosition=bottom;outlineConnect=0;verticalAlign=top;align=center;shape=mxgraph.office.clouds.public_im_cloud_service;" vertex="1" parent="1">
          <mxGeometry x="430" y="215" width="70" height="70" as="geometry" />
        </mxCell>
        <mxCell id="iKKEj0ru3nS35ErIRS3x-3" value=".NET" style="text;html=1;align=center;verticalAlign=middle;resizable=0;points=[];autosize=1;strokeColor=none;fillColor=none;" vertex="1" parent="1">
          <mxGeometry x="270" y="45" width="50" height="30" as="geometry" />
        </mxCell>
        <mxCell id="iKKEj0ru3nS35ErIRS3x-4" value="" style="edgeStyle=none;orthogonalLoop=1;jettySize=auto;html=1;rounded=0;exitX=1;exitY=0.5;exitDx=0;exitDy=0;" edge="1" parent="1" source="46Nfbtz4ScoCF9UXXQHK-2">
          <mxGeometry width="100" relative="1" as="geometry">
            <mxPoint x="240" y="210" as="sourcePoint" />
            <mxPoint x="420" y="240" as="targetPoint" />
            <Array as="points" />
          </mxGeometry>
        </mxCell>
        <mxCell id="iKKEj0ru3nS35ErIRS3x-5" value="DLL" style="text;html=1;align=center;verticalAlign=middle;resizable=0;points=[];autosize=1;strokeColor=none;fillColor=none;" vertex="1" parent="1">
          <mxGeometry x="320" y="170" width="50" height="30" as="geometry" />
        </mxCell>
        <mxCell id="iKKEj0ru3nS35ErIRS3x-6" value=".TLB" style="text;html=1;align=center;verticalAlign=middle;resizable=0;points=[];autosize=1;strokeColor=none;fillColor=none;" vertex="1" parent="1">
          <mxGeometry x="290" y="200" width="50" height="30" as="geometry" />
        </mxCell>
        <mxCell id="iKKEj0ru3nS35ErIRS3x-8" value="NUBEFACT" style="whiteSpace=wrap;html=1;rounded=1;arcSize=10;" vertex="1" parent="1">
          <mxGeometry x="660" y="260" width="120" height="60" as="geometry" />
        </mxCell>
        <mxCell id="iKKEj0ru3nS35ErIRS3x-9" value="" style="edgeStyle=none;orthogonalLoop=1;jettySize=auto;html=1;rounded=0;entryX=0;entryY=0.5;entryDx=0;entryDy=0;" edge="1" parent="1" target="iKKEj0ru3nS35ErIRS3x-8">
          <mxGeometry width="100" relative="1" as="geometry">
            <mxPoint x="520" y="284" as="sourcePoint" />
            <mxPoint x="620" y="284" as="targetPoint" />
            <Array as="points" />
          </mxGeometry>
        </mxCell>
        <mxCell id="iKKEj0ru3nS35ErIRS3x-10" value="NET&lt;br&gt;CORE&lt;br&gt;API" style="whiteSpace=wrap;html=1;rounded=1;arcSize=10;fillColor=#fff2cc;strokeColor=#d6b656;" vertex="1" parent="1">
          <mxGeometry x="250" y="380" width="90" height="60" as="geometry" />
        </mxCell>
        <mxCell id="iKKEj0ru3nS35ErIRS3x-11" value="V.5.0&lt;br&gt;V.7.0" style="text;html=1;align=center;verticalAlign=middle;resizable=0;points=[];autosize=1;strokeColor=none;fillColor=none;" vertex="1" parent="1">
          <mxGeometry x="310" y="340" width="50" height="40" as="geometry" />
        </mxCell>
        <mxCell id="iKKEj0ru3nS35ErIRS3x-12" value="" style="edgeStyle=none;orthogonalLoop=1;jettySize=auto;html=1;rounded=0;entryX=1;entryY=0.5;entryDx=0;entryDy=0;" edge="1" parent="1" target="iKKEj0ru3nS35ErIRS3x-10">
          <mxGeometry width="100" relative="1" as="geometry">
            <mxPoint x="430" y="310" as="sourcePoint" />
            <mxPoint x="530" y="360" as="targetPoint" />
            <Array as="points" />
          </mxGeometry>
        </mxCell>
        <mxCell id="iKKEj0ru3nS35ErIRS3x-13" value="ANDROID VENTAS" style="whiteSpace=wrap;html=1;rounded=1;arcSize=10;fillColor=#e1d5e7;strokeColor=#9673a6;" vertex="1" parent="1">
          <mxGeometry x="40" y="320" width="90" height="60" as="geometry" />
        </mxCell>
        <mxCell id="iKKEj0ru3nS35ErIRS3x-15" value="SIST. VENTAS&lt;br&gt;- REACT&lt;br&gt;- NET" style="whiteSpace=wrap;html=1;rounded=1;arcSize=10;fillColor=#e1d5e7;strokeColor=#9673a6;" vertex="1" parent="1">
          <mxGeometry x="40" y="430" width="90" height="60" as="geometry" />
        </mxCell>
        <mxCell id="iKKEj0ru3nS35ErIRS3x-16" value="SIST. INVENT.&lt;br&gt;WEB&lt;br&gt;ASP NET" style="whiteSpace=wrap;html=1;rounded=1;arcSize=10;fillColor=#e1d5e7;strokeColor=#9673a6;" vertex="1" parent="1">
          <mxGeometry x="40" y="520" width="90" height="60" as="geometry" />
        </mxCell>
        <mxCell id="iKKEj0ru3nS35ErIRS3x-17" value="SIST. INVENT.&lt;br&gt;" style="whiteSpace=wrap;html=1;rounded=1;arcSize=10;fillColor=#e1d5e7;strokeColor=#9673a6;" vertex="1" parent="1">
          <mxGeometry x="40" y="620" width="90" height="60" as="geometry" />
        </mxCell>
        <mxCell id="iKKEj0ru3nS35ErIRS3x-18" value="" style="edgeStyle=none;orthogonalLoop=1;jettySize=auto;html=1;rounded=0;entryX=0;entryY=0.5;entryDx=0;entryDy=0;" edge="1" parent="1" target="iKKEj0ru3nS35ErIRS3x-10">
          <mxGeometry width="100" relative="1" as="geometry">
            <mxPoint x="130" y="349.5" as="sourcePoint" />
            <mxPoint x="230" y="349.5" as="targetPoint" />
            <Array as="points" />
          </mxGeometry>
        </mxCell>
        <mxCell id="iKKEj0ru3nS35ErIRS3x-19" value="" style="edgeStyle=none;orthogonalLoop=1;jettySize=auto;html=1;rounded=0;entryX=-0.022;entryY=0.633;entryDx=0;entryDy=0;entryPerimeter=0;" edge="1" parent="1" target="iKKEj0ru3nS35ErIRS3x-10">
          <mxGeometry width="100" relative="1" as="geometry">
            <mxPoint x="130" y="459.5" as="sourcePoint" />
            <mxPoint x="230" y="459.5" as="targetPoint" />
            <Array as="points" />
          </mxGeometry>
        </mxCell>
        <mxCell id="iKKEj0ru3nS35ErIRS3x-20" value="" style="edgeStyle=none;orthogonalLoop=1;jettySize=auto;html=1;rounded=0;entryX=0.25;entryY=1;entryDx=0;entryDy=0;" edge="1" parent="1" target="iKKEj0ru3nS35ErIRS3x-10">
          <mxGeometry width="100" relative="1" as="geometry">
            <mxPoint x="130" y="549.5" as="sourcePoint" />
            <mxPoint x="230" y="549.5" as="targetPoint" />
            <Array as="points" />
          </mxGeometry>
        </mxCell>
        <mxCell id="iKKEj0ru3nS35ErIRS3x-21" value="" style="edgeStyle=none;orthogonalLoop=1;jettySize=auto;html=1;rounded=0;entryX=0.5;entryY=1;entryDx=0;entryDy=0;" edge="1" parent="1" target="iKKEj0ru3nS35ErIRS3x-10">
          <mxGeometry width="100" relative="1" as="geometry">
            <mxPoint x="130" y="649.5" as="sourcePoint" />
            <mxPoint x="230" y="649.5" as="targetPoint" />
            <Array as="points" />
          </mxGeometry>
        </mxCell>
        <mxCell id="iKKEj0ru3nS35ErIRS3x-22" value="" style="edgeStyle=none;orthogonalLoop=1;jettySize=auto;html=1;rounded=0;entryX=0;entryY=0.5;entryDx=0;entryDy=0;entryPerimeter=0;" edge="1" parent="1" target="ySV2w_Ocx4xFf1f9Jq5G-1">
          <mxGeometry width="100" relative="1" as="geometry">
            <mxPoint x="340" y="420" as="sourcePoint" />
            <mxPoint x="440" y="420" as="targetPoint" />
            <Array as="points" />
          </mxGeometry>
        </mxCell>
        <mxCell id="iKKEj0ru3nS35ErIRS3x-23" value="VS 2022 O SUPERIOR&lt;br&gt;&lt;br&gt;- NUBEFACT&lt;br&gt;- SUNAT&lt;br&gt;- CPE (FALTA)" style="ellipse;shape=cloud;whiteSpace=wrap;html=1;fillColor=#fff2cc;strokeColor=#d6b656;" vertex="1" parent="1">
          <mxGeometry x="280" y="430" width="240" height="210" as="geometry" />
        </mxCell>
      </root>
    </mxGraphModel>
  </diagram>
</mxfile>
